<svg width="1200" height="800" viewBox="0 0 680 453" role="img" xmlns="http://www.w3.org/2000/svg">
  <title>FabPulse Thumbnail — House Pulse</title>
  <desc>Thumbnail FabPulse donde el waveform forma la silueta de una casa</desc>

  <rect width="680" height="453" fill="#0D1117"/>

  <line x1="0" y1="150" x2="680" y2="150" stroke="#1A2030" stroke-width="0.5"/>
  <line x1="0" y1="300" x2="680" y2="300" stroke="#1A2030" stroke-width="0.5"/>
  <line x1="226" y1="0" x2="226" y2="453" stroke="#1A2030" stroke-width="0.5"/>
  <line x1="453" y1="0" x2="453" y2="453" stroke="#1A2030" stroke-width="0.5"/>

  <g fill="#1D9E75" opacity="0.15">
    <circle cx="554" cy="52" r="2"/><circle cx="574" cy="52" r="2"/><circle cx="594" cy="52" r="2"/><circle cx="614" cy="52" r="2"/><circle cx="634" cy="52" r="2"/>
    <circle cx="554" cy="72" r="2"/><circle cx="574" cy="72" r="2"/><circle cx="594" cy="72" r="2"/><circle cx="614" cy="72" r="2"/><circle cx="634" cy="72" r="2"/>
    <circle cx="554" cy="92" r="2"/><circle cx="574" cy="92" r="2"/><circle cx="594" cy="92" r="2"/><circle cx="614" cy="92" r="2"/><circle cx="634" cy="92" r="2"/>
    <circle cx="554" cy="112" r="2"/><circle cx="574" cy="112" r="2"/><circle cx="594" cy="112" r="2"/><circle cx="614" cy="112" r="2"/><circle cx="634" cy="112" r="2"/>
  </g>

  <g fill="#1D9E75" opacity="0.08">
    <circle cx="46" cy="352" r="2"/><circle cx="66" cy="352" r="2"/><circle cx="86" cy="352" r="2"/>
    <circle cx="46" cy="372" r="2"/><circle cx="66" cy="372" r="2"/><circle cx="86" cy="372" r="2"/>
    <circle cx="46" cy="392" r="2"/><circle cx="66" cy="392" r="2"/><circle cx="86" cy="392" r="2"/>
  </g>

  <rect x="40" y="40" width="36" height="3" fill="#1D9E75" rx="1.5"/>
  <rect x="40" y="40" width="3" height="36" fill="#1D9E75" rx="1.5"/>
  <rect x="604" y="410" width="36" height="3" fill="#1D9E75" rx="1.5"/>
  <rect x="637" y="377" width="3" height="36" fill="#1D9E75" rx="1.5"/>

  <polyline points="0,236 100,236 100,180 200,110 300,180 300,236 340,236 370,236 370,214 410,186 450,214 450,236 490,236 680,236" fill="none" stroke="#1D9E75" stroke-width="6" opacity="0.06" stroke-linejoin="round" stroke-linecap="round"/>
  <polyline points="0,236 100,236 100,180 200,110 300,180 300,236 340,236 370,236 370,214 410,186 450,214 450,236 490,236 680,236" fill="none" stroke="#1D9E75" stroke-width="3" opacity="0.2" stroke-linejoin="round" stroke-linecap="round"/>
  <polyline points="0,236 100,236 100,180 200,110 300,180 300,236 340,236 370,236 370,214 410,186 450,214 450,236 490,236 680,236" fill="none" stroke="#1D9E75" stroke-width="2" opacity="0.5" stroke-linejoin="round" stroke-linecap="round"/>

  <polyline points="100,236 100,180 200,110 300,180 300,236" fill="none" stroke="#5DCAA5" stroke-width="2.5" opacity="0.85" stroke-linejoin="round" stroke-linecap="round"/>
  <polyline points="370,236 370,214 410,186 450,214 450,236" fill="none" stroke="#5DCAA5" stroke-width="1.5" opacity="0.4" stroke-linejoin="round" stroke-linecap="round"/>

  <circle cx="490" cy="236" r="4.5" fill="#5DCAA5" opacity="0.9"/>
  <circle cx="490" cy="236" r="9" fill="none" stroke="#5DCAA5" stroke-width="1" opacity="0.25"/>
  <circle cx="200" cy="110" r="3.5" fill="#5DCAA5" opacity="0.7"/>

  <rect x="270" y="52" width="140" height="26" rx="13" fill="#0F6E56"/>
  <text x="340" y="69" text-anchor="middle" fill="#9FE1CB" font-family="system-ui,sans-serif" font-size="11" font-weight="600" letter-spacing="1.8">PRODUCTION INTEL</text>

  <rect x="116" y="272" width="42" height="42" rx="10" fill="#1D9E75"/>
  <polyline points="124,293 130,293 134,283 139,303 143,288 147,298 151,293 158,293" fill="none" stroke="#fff" stroke-width="2" stroke-linecap="round" stroke-linejoin="round"/>

  <text x="168" y="305" fill="#F0F6FF" font-family="system-ui,sans-serif" font-size="50" font-weight="700" letter-spacing="-1.5">Fab<tspan fill="#5DCAA5">Pulse</tspan></text>
  <text x="340" y="338" text-anchor="middle" fill="#4A6070" font-family="system-ui,sans-serif" font-size="13.5" letter-spacing="0.3">The Pulse of Precision Manufacturing</text>

  <rect x="80" y="368" width="520" height="62" rx="10" fill="#111820" stroke="#1D9E75" stroke-width="0.5"/>

  <text x="192" y="394" text-anchor="middle" fill="#1D9E75" font-family="system-ui,sans-serif" font-size="16" font-weight="700">Real-time</text>
  <text x="192" y="413" text-anchor="middle" fill="#2A4050" font-family="system-ui,sans-serif" font-size="11">Production data</text>
  <line x1="304" y1="380" x2="304" y2="418" stroke="#1A2A38" stroke-width="0.5"/>

  <text x="340" y="394" text-anchor="middle" fill="#1D9E75" font-family="system-ui,sans-serif" font-size="16" font-weight="700">AI-driven</text>
  <text x="340" y="413" text-anchor="middle" fill="#2A4050" font-family="system-ui,sans-serif" font-size="11">KPI insights</text>
  <line x1="376" y1="380" x2="376" y2="418" stroke="#1A2A38" stroke-width="0.5"/>

  <text x="488" y="394" text-anchor="middle" fill="#1D9E75" font-family="system-ui,sans-serif" font-size="16" font-weight="700">Zero waste</text>
  <text x="488" y="413" text-anchor="middle" fill="#2A4050" font-family="system-ui,sans-serif" font-size="11">Bottleneck alerts</text>

  <text x="340" y="444" text-anchor="middle" fill="#1A2A35" font-family="system-ui,sans-serif" font-size="11" letter-spacing="1">fabpulse.io</text>
</svg>
